<svg role="img" viewBox="0 0 24 24" xmlns="http://www.w3.org/2000/svg"><title>ActiveCampaign</title><path fill="#356AE6" d="M15.071 10.581c.523.368.79.822.79 1.35v.261c-.006.407-.152.98-.79 1.46l-.002.001c-.308.22-3.437 2.388-6.75 4.685-3.242 2.246-6.894 4.777-7.34 5.093v.365l-.217-.365c-.01-.018-.02-.034-.009-.06h-.007V22.965c0-.65.072-.963.796-1.445.604-.389 10.173-7.024 11.443-7.903-1.26-.875-10.706-7.432-11.353-7.906l-.076-.056C1.077 5.309.7 5.036.7 4.314V.545l.181.127c.565.393 13.82 9.632 14.19 9.909z"/><path fill="#356AE6" d="M6.825 13.148c-.328 0-.653-.114-.995-.341-.828-.553-5.075-3.506-5.118-3.537l-.05-.034V7.78c0-.334.144-.599.397-.728.271-.138.609-.093.905.122.639.41 6.819 4.7 6.881 4.744l.14.096-.142.096s-.418.278-.881.602c-.397.291-.768.436-1.137.436z"/></svg>
